<svg xmlns="http://www.w3.org/2000/svg" xmlns:xlink="http://www.w3.org/1999/xlink" version="1.1" viewBox="0 0 172 172"><g fill="none" fill-rule="nonzero" stroke="none" stroke-width="1" stroke-linecap="butt" stroke-linejoin="miter" stroke-miterlimit="10" stroke-dasharray="" stroke-dashoffset="0" font-family="none" font-weight="none" font-size="none" text-anchor="none" style="mix-blend-mode: normal"><path d="M0,172v-172h172v172z" fill="none" stroke="none"/><g id="original-icon" fill="#000000" stroke="none" opacity="0" visibility="hidden"><path d="M41.28,0c-3.7625,0 -6.88,3.1175 -6.88,6.88v6.88h-20.64c-3.99094,0 -6.88,2.88906 -6.88,6.88v24.08h158.24v-24.08c0,-3.99094 -2.88906,-6.88 -6.88,-6.88h-20.64v-6.88c0,-3.7625 -3.1175,-6.88 -6.88,-6.88h-6.88c-3.7625,0 -6.88,3.1175 -6.88,6.88v6.88h-61.92v-6.88c0,-3.7625 -3.1175,-6.88 -6.88,-6.88zM41.28,6.88h6.88v20.64h-6.88zM123.84,6.88h6.88v20.64h-6.88zM6.88,51.6v106.64c0,3.80281 3.07719,6.88 6.88,6.88h144.48c3.80281,0 6.88,-3.07719 6.88,-6.88v-106.64zM83.67531,77.99125c1.67969,0 3.34594,0.25531 4.97187,0.7525c1.63938,0.49719 3.10406,1.20938 4.39406,2.16344c1.30344,0.95406 2.35156,2.15 3.13094,3.62813c0.77938,1.46469 1.1825,3.14437 1.1825,5.03906c0,2.19031 -0.49719,4.09844 -1.49156,5.72437c-0.99438,1.63938 -2.53969,2.82188 -4.64938,3.56094v0.13438c2.48594,0.48375 4.42094,1.72 5.805,3.68187c1.37063,1.96188 2.06938,4.34031 2.06938,7.14875c0,2.06938 -0.41656,3.91031 -1.24969,5.53625c-0.81969,1.63938 -1.935,3.02344 -3.3325,4.15219c-1.3975,1.14219 -3.03687,2.01562 -4.89125,2.63375c-1.85437,0.61812 -3.81625,0.92719 -5.88562,0.92719c-2.51281,0 -4.71656,-0.36281 -6.59781,-1.075c-1.86781,-0.72563 -3.44,-1.74688 -4.70312,-3.06375c-1.26313,-1.33031 -2.21719,-2.91594 -2.87563,-4.77031c-0.65844,-1.86781 -1.00781,-3.92375 -1.06156,-6.19469h7.06813c-0.08063,2.64719 0.56437,4.8375 1.94844,6.58437c1.38406,1.76031 3.45344,2.63375 6.22156,2.63375c2.35156,0 4.32687,-0.67187 5.9125,-2.00219c1.58562,-1.34375 2.37844,-3.25187 2.37844,-5.73781c0,-1.67969 -0.3225,-3.02344 -0.98094,-4.01781c-0.65844,-0.99438 -1.53188,-1.74688 -2.60688,-2.27094c-1.075,-0.51062 -2.28437,-0.81969 -3.61469,-0.94062c-1.34375,-0.13438 -2.72781,-0.17469 -4.12531,-0.13438v-5.2675c1.15563,0.05375 2.31125,-0.04031 3.48031,-0.24187c1.15563,-0.20156 2.17688,-0.56438 3.07719,-1.075c0.91375,-0.52406 1.65281,-1.23625 2.20375,-2.13656c0.56438,-0.91375 0.84656,-2.02906 0.84656,-3.34594c0,-1.86781 -0.63156,-3.35938 -1.89469,-4.46125c-1.26313,-1.11531 -2.88906,-1.66625 -4.86438,-1.66625c-1.23625,0 -2.31125,0.24187 -3.225,0.72562c-0.90031,0.49719 -1.65281,1.1825 -2.2575,2.02906c-0.59125,0.83313 -1.03469,1.78719 -1.31687,2.84875c-0.29563,1.04813 -0.43,2.12313 -0.37625,3.23844h-7.06813c0.09406,-2.10969 0.48375,-4.04469 1.1825,-5.84531c0.69875,-1.80063 1.65281,-3.35938 2.87563,-4.67625c1.22281,-1.31688 2.6875,-2.35156 4.42094,-3.09063c1.74688,-0.7525 3.70875,-1.12875 5.89906,-1.12875z"/></g><g id="subtracted-icon" fill="#000000" stroke="none"><path d="M48.16,0c3.7625,0 6.88,3.1175 6.88,6.88v6.88h61.92v-6.88c0,-3.7625 3.1175,-6.88 6.88,-6.88h6.88c3.7625,0 6.88,3.1175 6.88,6.88v6.88h20.64c3.99094,0 6.88,2.88906 6.88,6.88v24.08h-158.24v-24.08c0,-3.99094 2.88906,-6.88 6.88,-6.88h20.64v-6.88c0,-3.7625 3.1175,-6.88 6.88,-6.88zM41.28,27.52h6.88v-20.64h-6.88zM123.84,27.52h6.88v-20.64h-6.88zM165.12,51.6v106.64c0,3.80281 -3.07719,6.88 -6.88,6.88h-144.48c-3.80281,0 -6.88,-3.07719 -6.88,-6.88v-106.64zM77.77625,79.12c-1.73344,0.73906 -3.19812,1.77375 -4.42094,3.09063c-1.22281,1.31687 -2.17688,2.87562 -2.87563,4.67625c-0.10639,0.27416 -0.20562,0.55144 -0.29772,0.83197l-2.87812,-2.93808l-4.96154,-4.63077l-13.89231,13.89231l4.63077,4.96154l17.59506,17.59506c0.49835,0.85209 1.08178,1.63022 1.7523,2.33641c0.77699,0.81006 1.67093,1.50825 2.6787,2.09459l8.07395,8.07395l4.63077,-4.63077l2.65224,-2.63302c1.50912,-0.58935 2.8619,-1.3623 4.04216,-2.32693c1.3975,-1.12875 2.51281,-2.51281 3.3325,-4.15219c0.23879,-0.46602 0.44335,-0.94969 0.6137,-1.45135l35.00556,-34.75189l4.63077,-4.96154l-4.63077,-4.63077l-4.96154,-4.63077l-4.63077,-4.63077l-26.76903,26.76903c-0.19745,-0.90749 -0.50688,-1.75334 -0.92417,-2.53756c-0.77937,-1.47813 -1.8275,-2.67406 -3.13094,-3.62813c-1.29,-0.95406 -2.75469,-1.66625 -4.39406,-2.16344c-1.62594,-0.49719 -3.29219,-0.7525 -4.97187,-0.7525c-2.19031,0 -4.15219,0.37625 -5.89906,1.12875zM76.36531,92.73219c-0.05375,-1.11531 0.08062,-2.19031 0.37625,-3.23844c0.28219,-1.06156 0.72562,-2.01562 1.31687,-2.84875c0.60469,-0.84656 1.35719,-1.53187 2.2575,-2.02906c0.91375,-0.48375 1.98875,-0.72562 3.225,-0.72562c1.97531,0 3.60125,0.55094 4.86438,1.66625c1.26312,1.10187 1.89469,2.59344 1.89469,4.46125c0,1.31687 -0.28219,2.43219 -0.84656,3.34594c-0.55094,0.90031 -1.29,1.6125 -2.20375,2.13656c-0.90031,0.51062 -1.92156,0.87344 -3.07719,1.075c-1.16906,0.20156 -2.32469,0.29562 -3.48031,0.24187l0,1.63085l-5.5992,-5.71585z"/></g><g stroke="none"><g id="Layer_9" fill="#ffffff"><path d="M118.73846,68.40769l-35.72308,34.06923l-15.21538,-14.22308l-9.26154,9.26154l24.47692,23.48462l44.98462,-43.33077z"/></g><g fill="#000000" opacity="0"><g id="IOS" font-family="Inter, sans-serif" font-weight="400" font-size="16" text-anchor="start" visibility="hidden"/><g id="IOS_copy"><path d="M128.49615,64.93462l-4.63077,-4.63077l-4.63077,4.63077l-36.05385,36.05385l-15.87692,-16.20769l-4.96154,-4.63077l-4.63077,4.63077l-4.63077,4.63077l-4.63077,4.63077l4.63077,4.96154l25.46923,25.46923l4.63077,4.63077l4.63077,-4.63077l45.64615,-45.31538l4.63077,-4.96154l-4.63077,-4.63077z"/></g></g></g><path d="M58.53846,121v-52.59231h69.46154v52.59231z" id="overlay-drag" fill="#ff0000" stroke="none" opacity="0"/></g></svg>